<svg width="139" height="117" viewBox="0 0 139 117" fill="none" xmlns="http://www.w3.org/2000/svg">
<path d="M82.4068 76.3475L75.6105 74.8415C75.542 70.2669 74.5623 65.8497 72.7007 61.711L77.9576 57.4542C79.2084 56.441 79.4008 54.6056 78.3891 53.3533L71.7983 45.2129C71.3114 44.6108 70.6058 44.2288 69.8361 44.1472C69.0707 44.0641 68.2966 44.2959 67.696 44.7813L62.5776 48.9303C58.9535 46.1502 54.8847 44.1793 50.4821 43.0713V36.5724C50.4821 34.9629 49.1759 33.6567 47.5665 33.6567H37.0949C35.4855 33.6567 34.1793 34.9629 34.1793 36.5724V43.0757C29.6892 44.2084 25.5461 46.2406 21.8651 49.1169L16.6972 45.0059C16.0922 44.5248 15.3268 44.3076 14.5513 44.3906C13.783 44.4781 13.0803 44.8674 12.5992 45.4738L6.07988 53.6711C5.0769 54.9307 5.28682 56.7661 6.54638 57.7676L11.8558 61.9894C10.0335 66.1413 9.09319 70.5599 9.06257 75.1244L2.2604 76.6959C0.691784 77.0603 -0.286412 78.6231 0.0751268 80.1917L2.43096 90.3979C2.79396 91.968 4.36257 92.9447 5.92826 92.5832L12.9447 90.9636C15.028 94.8734 17.8197 98.2789 21.2412 101.085L18.0777 107.718C17.3838 109.172 17.999 110.911 19.4524 111.605L28.9049 116.117C29.3 116.305 29.7301 116.4 30.1601 116.4C30.4896 116.4 30.8176 116.344 31.1339 116.233C31.8628 115.974 32.4591 115.439 32.7929 114.741L35.9972 108.019C40.2584 108.839 44.6945 108.826 48.9412 107.972L52.2009 114.655C52.9064 116.104 54.6573 116.7 56.1005 115.999L65.5122 111.409C66.9583 110.704 67.5604 108.957 66.8548 107.511L63.6389 100.916C67.0429 98.0792 69.8069 94.646 71.8595 90.7128L78.8745 92.2683C80.4432 92.6138 82.003 91.6254 82.3514 90.051L84.6213 79.8258C84.7875 79.0707 84.6504 78.2791 84.232 77.6274C83.818 76.9743 83.162 76.5137 82.4068 76.3475ZM55.1879 75.346C55.1879 82.4295 49.4252 88.1922 42.3402 88.1922C35.2581 88.1922 29.4953 82.4295 29.4953 75.346C29.4953 68.2624 35.2566 62.4997 42.3402 62.4997C49.4252 62.5011 55.1879 68.2624 55.1879 75.346Z" fill="white"/>
<path d="M90.3023 51.3852C91.3898 51.3852 92.4351 50.7729 92.9366 49.7247L94.4731 46.5059C97.1351 47.0205 99.9181 47.0088 102.565 46.4752L104.125 49.6751C104.829 51.1213 106.577 51.7234 108.025 51.0178L111.948 49.1037C112.643 48.764 113.175 48.1619 113.428 47.4316C113.678 46.7012 113.63 45.8994 113.289 45.204L111.754 42.0624C113.88 40.2926 115.611 38.1467 116.896 35.6816L120.217 36.4163C121.782 36.7633 123.345 35.7719 123.695 34.2004L124.637 29.9392C124.984 28.3677 123.994 26.8107 122.419 26.4623L119.236 25.7567C119.195 22.8965 118.581 20.1339 117.416 17.5463L119.855 15.571C120.456 15.084 120.839 14.3785 120.918 13.6102C121 12.8419 120.769 12.0707 120.282 11.4701L117.536 8.07777C116.52 6.8255 114.683 6.63453 113.435 7.64771L111.082 9.55308C108.817 7.8139 106.273 6.58205 103.519 5.88959V2.91564C103.519 1.30621 102.213 0 100.603 0H96.2385C94.6291 0 93.3229 1.30621 93.3229 2.91564V5.88959C90.5137 6.59808 87.9246 7.8693 85.6256 9.66825L83.2435 7.776C81.9869 6.77448 80.153 6.98441 79.1471 8.2425L76.4341 11.6611C75.953 12.2675 75.7328 13.0387 75.8189 13.807C75.9078 14.5753 76.2956 15.2779 76.902 15.759L79.3643 17.7198C78.2272 20.3132 77.6382 23.0787 77.6193 25.936L74.4296 26.6722C73.6744 26.8457 73.0228 27.3122 72.6131 27.9682C72.2035 28.6243 72.0708 29.4158 72.2457 30.1695L73.2298 34.4235C73.5928 35.9921 75.1585 36.9703 76.7256 36.6073L80.048 35.839C81.3498 38.2823 83.0948 40.4122 85.2378 42.1703L83.729 45.3338C83.3951 46.0321 83.3543 46.8324 83.6124 47.5613C83.8718 48.2902 84.4083 48.8879 85.1052 49.2203L89.0442 51.0994C89.4538 51.2919 89.881 51.3852 90.3023 51.3852ZM90.4 26.0716C90.4 21.6413 94.0051 18.039 98.4355 18.039C102.864 18.039 106.468 21.6428 106.468 26.0716C106.468 30.5019 102.864 34.1057 98.4355 34.1057C94.0037 34.1057 90.4 30.5019 90.4 26.0716Z" fill="white"/>
<path d="M136.718 82.1684L133.537 81.4642C133.496 78.6055 132.882 75.8429 131.715 73.2538L134.156 71.2785C134.757 70.7916 135.14 70.086 135.221 69.3162C135.301 68.5465 135.07 67.7753 134.584 67.1762L131.836 63.7838C130.822 62.5316 128.984 62.3406 127.735 63.3538L125.383 65.2591C123.115 63.52 120.572 62.2881 117.82 61.5956V58.6232C117.82 57.0137 116.514 55.7075 114.904 55.7075H110.54C108.93 55.7075 107.624 57.0137 107.624 58.6232V61.5986C104.812 62.3056 102.221 63.5783 99.9254 65.3772L97.5448 63.485C96.9398 63.0024 96.1773 62.7823 95.3988 62.8698C94.6306 62.9587 93.9279 63.345 93.4468 63.9515L90.7309 67.3671C89.7279 68.6267 89.9379 70.4621 91.1974 71.4665L93.6626 73.4258C92.5226 76.028 91.9322 78.7921 91.9147 81.6436L88.725 82.3798C87.9713 82.5547 87.3182 83.0183 86.9085 83.6772C86.5003 84.3318 86.3662 85.1234 86.5411 85.8785L87.5252 90.1324C87.8882 91.701 89.4597 92.6749 91.0196 92.3162L94.3448 91.5494C95.6467 93.9942 97.3917 96.1241 99.5318 97.8807L98.0244 101.041C97.6905 101.74 97.6483 102.541 97.9063 103.27C98.1672 103.999 98.7023 104.595 99.3991 104.929L103.338 106.808C103.742 107.001 104.171 107.093 104.59 107.093C105.678 107.093 106.725 106.48 107.225 105.431L108.761 102.213C111.426 102.728 114.212 102.719 116.855 102.183L118.416 105.38C119.122 106.826 120.868 107.429 122.316 106.724L126.238 104.811C126.933 104.473 127.465 103.871 127.716 103.141C127.968 102.41 127.921 101.608 127.58 100.913L126.047 97.7714C128.174 96.0001 129.902 93.8528 131.184 91.3905L134.505 92.1282C135.263 92.2958 136.052 92.1573 136.703 91.7389C137.355 91.3235 137.816 90.6674 137.983 89.9108L138.926 85.6496C139.284 84.0737 138.291 82.5182 136.718 82.1684ZM120.763 81.7791C120.763 86.2094 117.16 89.8132 112.732 89.8132C108.303 89.8132 104.697 86.2094 104.697 81.7791C104.697 77.3488 108.303 73.7451 112.732 73.7451C117.16 73.7466 120.763 77.3503 120.763 81.7791Z" fill="white"/>
</svg>
