<svg width="60" height="60" viewBox="0 0 60 60" fill="none" xmlns="http://www.w3.org/2000/svg">
<path d="M41.771 17.7663C41.7828 17.7663 41.7985 17.7663 41.8143 17.7663C42.2257 17.7663 42.6077 17.8943 42.9207 18.1148L42.9148 18.1109C43.1432 18.3097 43.2968 18.5893 43.3342 18.9043V18.9102C43.3735 19.1504 43.3952 19.426 43.3952 19.7075C43.3952 19.8355 43.3913 19.9615 43.3814 20.0875V20.0698C42.9384 24.7338 41.0169 36.0442 40.0404 41.2653C39.627 43.4763 38.8139 44.2165 38.0264 44.2874C36.3156 44.4468 35.0162 43.1573 33.3585 42.0706C30.7637 40.3676 29.297 39.3084 26.7789 37.6488C23.8672 35.7332 25.7552 34.6759 27.4129 32.9553C27.848 32.5024 35.3903 25.6413 35.5379 25.0192C35.5458 24.9818 35.5497 24.9405 35.5497 24.8972C35.5497 24.7436 35.4926 24.6038 35.4001 24.4975C35.2977 24.4306 35.1698 24.3932 35.0359 24.3932C34.9473 24.3932 34.8626 24.4109 34.7839 24.4404L34.7878 24.4384C34.5279 24.4975 30.3831 27.2367 22.3532 32.656C21.4771 33.347 20.3707 33.7841 19.1658 33.8353H19.154C17.4471 33.6286 15.8977 33.2486 14.427 32.7072L14.5727 32.7544C12.726 32.152 11.2593 31.835 11.3853 30.8152C11.4522 30.285 12.1833 29.7423 13.5785 29.1871C22.1727 25.4425 27.9038 22.9743 30.7716 21.7826C33.9353 20.1033 37.6031 18.7212 41.4599 17.8254L41.769 17.7644L41.771 17.7663ZM29.5805 0.0180664C13.2359 0.0574414 0 13.317 0 29.6674C0 46.0415 13.2733 59.3168 29.6494 59.3168C46.0254 59.3168 59.2988 46.0435 59.2988 29.6674C59.2988 13.317 46.0628 0.0574414 29.7222 0.0180664H29.7183C29.6723 0.0180664 29.6264 0.0180664 29.5805 0.0180664Z" fill="white"/>
</svg>
