<svg width="59" height="59" viewBox="0 0 59 59" fill="none" xmlns="http://www.w3.org/2000/svg">
<path d="M29.28 0C13.1089 0 0 13.1089 0 29.28C0 45.4511 13.1089 58.56 29.28 58.56C45.4511 58.56 58.56 45.4511 58.56 29.28C58.56 13.1089 45.4511 0 29.28 0ZM40.5406 33.0345C40.5406 33.0345 43.13 35.5905 43.7675 36.7769C43.7858 36.8013 43.7949 36.8257 43.801 36.8379C44.0603 37.274 44.1213 37.6126 43.9932 37.8657C43.7797 38.2866 43.0477 38.494 42.7976 38.5123H38.2226C37.9054 38.5123 37.2405 38.43 36.4353 37.8749C35.8161 37.4418 35.2062 36.7311 34.6114 36.0388C33.7239 35.0079 32.9552 34.1173 32.1805 34.1173C32.0822 34.1171 31.9844 34.1326 31.8908 34.163C31.3052 34.3521 30.5549 35.1878 30.5549 37.4143C30.5549 38.1097 30.0059 38.5093 29.6185 38.5093H27.5232C26.8095 38.5093 23.0915 38.2592 19.7975 34.7852C15.7654 30.5305 12.1359 21.9966 12.1054 21.9173C11.8767 21.3652 12.3494 21.0694 12.8649 21.0694H17.4856C18.1017 21.0694 18.303 21.4445 18.4433 21.777C18.608 22.1643 19.2119 23.7046 20.2032 25.437C21.8105 28.2613 22.7957 29.4081 23.5856 29.4081C23.7338 29.4064 23.8793 29.3687 24.0096 29.2983C25.0405 28.7249 24.8483 25.0496 24.8026 24.2871C24.8026 24.1438 24.7995 22.6432 24.2719 21.9234C23.8937 21.4018 23.2501 21.2036 22.8597 21.1304C23.0178 20.9124 23.2259 20.7356 23.4667 20.6149C24.1743 20.2611 25.4492 20.2093 26.715 20.2093H27.4195C28.792 20.2276 29.1458 20.316 29.643 20.4411C30.6495 20.682 30.6708 21.3317 30.5823 23.5551C30.5549 24.1865 30.5274 24.9002 30.5274 25.742C30.5274 25.925 30.5183 26.1202 30.5183 26.3276C30.4878 27.4591 30.4512 28.7432 31.2503 29.2708C31.3545 29.3362 31.475 29.3711 31.598 29.3715C31.8755 29.3715 32.7112 29.3715 34.9743 25.4888C35.6723 24.2391 36.2788 22.9405 36.7891 21.6031C36.8348 21.5238 36.969 21.2798 37.1276 21.1853C37.2447 21.1256 37.3745 21.0953 37.5058 21.0968H42.9379C43.5296 21.0968 43.9352 21.1853 44.0115 21.414C44.1457 21.777 43.9871 22.8841 41.5074 26.2422L40.4003 27.7031C38.1524 30.6494 38.1525 30.7989 40.5406 33.0345Z" fill="white"/>
</svg>
