<svg width="59" height="59" viewBox="0 0 59 59" fill="none" xmlns="http://www.w3.org/2000/svg">
<path d="M0 59L5.074 43.779C2.49936 39.4486 1.01724 34.395 1.01724 28.9914C1.01724 12.98 13.9972 0 30.0086 0C46.02 0 59 12.98 59 28.9914C59 45.0028 46.02 57.9828 30.0086 57.9828C25.1371 57.9828 20.5493 56.7753 16.52 54.6533L0 59Z" fill="white"/>
<path d="M48.6741 38.7616C47.3216 36.2056 42.3338 33.2826 42.3338 33.2826C41.2053 32.6392 39.8435 32.5673 39.2001 33.7143C39.2001 33.7143 37.5793 35.6578 37.1671 35.9373C35.2842 37.2128 33.5401 37.1634 31.7795 35.4029L27.6879 31.3114L23.5963 27.2199C21.8357 25.4593 21.7864 23.7152 23.0619 21.8323C23.3414 21.4202 25.2849 19.7994 25.2849 19.7994C26.4319 19.155 26.36 17.7943 25.7166 16.6658C25.7166 16.6658 22.7936 11.678 20.2375 10.3255C19.1501 9.74996 17.815 9.9514 16.9455 10.8209L15.1387 12.6277C9.40676 18.3595 12.229 24.8303 17.961 30.5621L23.1996 35.8006L28.4382 41.0391C34.1701 46.771 40.641 49.5932 46.3729 43.8614L48.1798 42.0546C49.0493 41.183 49.2497 39.848 48.6741 38.7616Z" fill="#FF6231"/>
</svg>
